<svg width="48" height="48" viewBox="0 0 48 48" fill="none" xmlns="http://www.w3.org/2000/svg">
<path d="M23.85 44C22.45 44 21.0917 43.85 19.775 43.55C18.4583 43.25 17.2667 42.8667 16.2 42.4C14.6667 41.7333 13.4167 40.925 12.45 39.975C11.4833 39.025 11 37.9667 11 36.8V25.25C11 24.2167 11.3917 23.2667 12.175 22.4C12.9583 21.5333 13.9667 20.7667 15.2 20.1C16.4667 19.4333 17.8583 18.9167 19.375 18.55C20.8917 18.1833 22.4333 18 24 18C25.5667 18 27.1083 18.1833 28.625 18.55C30.1417 18.9167 31.5333 19.4333 32.8 20.1C34.0667 20.7667 35.0833 21.5333 35.85 22.4C36.6167 23.2667 37 24.2167 37 25.25V36.8C37 37.3667 36.875 37.9167 36.625 38.45C36.375 38.9833 36.0167 39.4833 35.55 39.95C35.0833 40.4167 34.5417 40.8583 33.925 41.275C33.3083 41.6917 32.6167 42.0667 31.85 42.4C31.8833 42.2333 31.9333 41.7667 32 41C32 39.0667 31.3167 37.4167 29.95 36.05C28.5833 34.6833 26.9333 34 25 34C23.5667 34 22.3 34.3833 21.2 35.15C20.1 35.9167 19.2667 36.9 18.7 38.1C19.7667 38.3667 20.7417 38.55 21.625 38.65C22.5083 38.75 23.2833 38.8 23.95 38.8C24.5167 38.8 24.975 38.7833 25.325 38.75C25.675 38.7167 25.9 38.7 26 38.7V43.9C25.6333 43.9333 25.275 43.9583 24.925 43.975C24.575 43.9917 24.2167 44 23.85 44ZM30 33C31.1 33 32.0417 32.6083 32.825 31.825C33.6083 31.0417 34 30.1 34 29C34 27.9 33.6083 26.9583 32.825 26.175C32.0417 25.3917 31.1 25 30 25C28.9 25 27.9583 25.3917 27.175 26.175C26.3917 26.9583 26 27.9 26 29C26 30.1 26.3917 31.0417 27.175 31.825C27.9583 32.6083 28.9 33 30 33ZM24 16C25.6667 16 27.0833 15.425 28.25 14.275C29.4167 13.125 30 11.7 30 10C30 8.33333 29.4167 6.91667 28.25 5.75C27.0833 4.58333 25.6667 4 24 4C22.3 4 20.875 4.58333 19.725 5.75C18.575 6.91667 18 8.33333 18 10C18 11.7 18.575 13.125 19.725 14.275C20.875 15.425 22.3 16 24 16Z" fill="#EB6024"/>
</svg>
