<svg width="28" height="28" viewBox="0 0 28 28" fill="none" xmlns="http://www.w3.org/2000/svg">
<g clip-path="url(#clip0_1430_56)">
<mask id="mask0_1430_56" style="mask-type:luminance" maskUnits="userSpaceOnUse" x="0" y="0" width="28" height="28">
<path d="M28 0H0V28H28V0Z" fill="white"/>
</mask>
<g mask="url(#mask0_1430_56)">
<path d="M22.575 11.7127C21.7817 7.68768 18.2467 4.66602 14 4.66602C10.6283 4.66602 7.7 6.57935 6.24167 9.37935C2.73 9.75268 0 12.7277 0 16.3327C0 20.1943 3.13833 23.3327 7 23.3327H22.1667C25.3867 23.3327 28 20.7193 28 17.4993C28 14.4193 25.6083 11.9227 22.575 11.7127ZM19.8333 15.166L14 20.9993L8.16667 15.166H11.6667V10.4993H16.3333V15.166H19.8333Z" fill="black"/>
</g>
</g>
<defs>
<clipPath id="clip0_1430_56">
<rect width="28" height="28" fill="white"/>
</clipPath>
</defs>
</svg>
