<svg width="800" height="800" viewBox="0 0 800 800" fill="none" xmlns="http://www.w3.org/2000/svg">
<g clip-path="url(#clip0_1433_60)">
<path d="M788.259 745.207H762.427V418.005H788.259C792.544 418.005 796.489 415.671 798.552 411.914C800.614 408.156 800.465 403.574 798.165 399.959L710.494 262.19C708.338 258.802 704.603 256.751 700.587 256.751H467.485L411.742 201.01V154.992H525.245C529.575 154.992 533.555 152.609 535.598 148.79C537.641 144.974 537.417 140.339 535.014 136.737L514.308 105.676L535.016 74.6158C537.419 71.0135 537.641 66.3794 535.6 62.5626C533.555 58.7442 529.575 56.3614 525.245 56.3614H411.742V43.0542C411.742 36.5696 406.485 31.3125 400 31.3125C393.516 31.3125 388.259 36.5696 388.259 43.0542V201.01L332.515 256.753H99.4132C95.3991 256.753 91.6621 258.804 89.5064 262.192L1.83512 399.961C-0.464681 403.576 -0.613409 408.158 1.44843 411.915C3.51184 415.671 7.45704 418.005 11.742 418.005H37.5737V745.207H11.742C5.25743 745.207 0.000289258 750.464 0.000289258 756.949C0.000289258 763.433 5.25743 768.69 11.742 768.69H788.259C794.743 768.69 800 763.433 800 756.949C800 750.464 794.743 745.207 788.259 745.207ZM694.142 280.236L766.87 394.522H605.254L490.969 280.236H694.142ZM503.305 79.8448L490.425 99.1638C487.795 103.107 487.795 108.246 490.425 112.189L503.305 131.508H411.742V79.8448H503.305ZM105.859 280.236H309.03L194.745 394.522H33.1322L105.859 280.236ZM61.057 418.005H199.606C199.994 418.005 200.382 417.985 200.771 417.946C200.936 417.93 201.099 417.899 201.264 417.875C201.478 417.844 201.693 417.819 201.907 417.777C202.098 417.739 202.283 417.686 202.471 417.639C202.654 417.594 202.839 417.551 203.02 417.498C203.205 417.442 203.385 417.371 203.567 417.307C203.747 417.243 203.927 417.183 204.105 417.11C204.276 417.039 204.439 416.956 204.605 416.878C204.785 416.792 204.968 416.712 205.145 416.617C205.306 416.531 205.458 416.432 205.614 416.34C205.787 416.238 205.962 416.139 206.129 416.026C206.305 415.909 206.469 415.779 206.637 415.652C206.774 415.549 206.917 415.453 207.05 415.342C207.351 415.096 207.639 414.837 207.913 414.561L400 222.476L592.088 414.563C592.362 414.837 592.652 415.096 592.951 415.344C593.084 415.453 593.225 415.549 593.362 415.652C593.531 415.779 593.697 415.911 593.873 416.028C594.039 416.139 594.212 416.236 594.383 416.338C594.541 416.433 594.695 416.532 594.857 416.618C595.033 416.712 595.213 416.792 595.393 416.876C595.56 416.956 595.726 417.039 595.899 417.111C596.074 417.183 596.252 417.241 596.429 417.305C596.612 417.371 596.794 417.442 596.982 417.5C597.16 417.554 597.342 417.594 597.522 417.639C597.713 417.687 597.901 417.741 598.095 417.778C598.302 417.819 598.51 417.844 598.718 417.874C598.889 417.899 599.058 417.93 599.232 417.947C599.617 417.985 600.003 418.005 600.39 418.005H738.944V745.207H486.889V581.606C486.889 561.32 470.385 544.815 450.098 544.815H349.902C329.616 544.815 313.112 561.32 313.112 581.606V745.207H61.057V418.005ZM463.405 594.913H336.595V581.606C336.595 574.268 342.565 568.299 349.902 568.299H450.098C457.436 568.299 463.405 574.268 463.405 581.606V594.913ZM336.595 618.397H388.259V745.207H336.595V618.397ZM411.742 618.397H463.405V745.207H411.742V618.397Z" fill="#EB6024"/>
<path d="M400.002 505.675C447.912 505.675 486.89 466.698 486.89 418.787C486.89 370.876 447.912 331.898 400.002 331.898C352.091 331.898 313.113 370.876 313.113 418.787C313.113 466.698 352.091 505.675 400.002 505.675ZM400.002 355.382C434.964 355.382 463.407 383.825 463.407 418.787C463.407 453.749 434.964 482.192 400.002 482.192C365.04 482.192 336.597 453.749 336.597 418.787C336.597 383.825 365.04 355.382 400.002 355.382Z" fill="#EB6024"/>
<path d="M399.999 430.529C406.483 430.529 411.74 425.272 411.74 418.788V381.214C411.74 374.73 406.483 369.473 399.999 369.473C393.514 369.473 388.257 374.73 388.257 381.214V407.046H362.425C355.941 407.046 350.684 412.303 350.684 418.788C350.684 425.272 355.941 430.529 362.425 430.529H399.999Z" fill="#EB6024"/>
<path d="M274.755 607.438H212.132C205.648 607.438 200.391 612.695 200.391 619.179V694.326C200.391 700.81 205.648 706.068 212.132 706.068H274.755C281.239 706.068 286.496 700.81 286.496 694.326V619.179C286.496 612.695 281.239 607.438 274.755 607.438ZM263.013 630.921V645.011H223.874V630.921H263.013ZM223.874 682.584V668.494H263.013V682.584H223.874Z" fill="#EB6024"/>
<path d="M162.036 607.438H99.4136C92.929 607.438 87.6719 612.695 87.6719 619.179V694.326C87.6719 700.81 92.929 706.068 99.4136 706.068H162.036C168.52 706.068 173.778 700.81 173.778 694.326V619.179C173.778 612.695 168.52 607.438 162.036 607.438ZM150.294 630.921V645.011H111.155V630.921H150.294ZM111.155 682.584V668.494H150.294V682.584H111.155Z" fill="#EB6024"/>
<path d="M270.841 457.145H216.046C207.414 457.145 200.391 464.168 200.391 472.8V556.557C200.391 563.042 205.648 568.299 212.132 568.299H274.755C281.239 568.299 286.496 563.042 286.496 556.557V472.8C286.496 464.168 279.473 457.145 270.841 457.145ZM263.013 480.628V507.242H223.874V480.628H263.013ZM223.874 544.816V530.726H263.013V544.816H223.874Z" fill="#EB6024"/>
<path d="M158.122 457.145H103.327C94.695 457.145 87.6719 464.168 87.6719 472.8V556.557C87.6719 563.042 92.929 568.299 99.4136 568.299H162.036C168.52 568.299 173.778 563.042 173.778 556.557V472.8C173.778 464.168 166.754 457.145 158.122 457.145ZM150.294 480.628V507.242H111.155V480.628H150.294ZM111.155 544.816V530.726H150.294V544.816H111.155Z" fill="#EB6024"/>
<path d="M637.964 706.068H700.587C707.071 706.068 712.328 700.81 712.328 694.326V619.179C712.328 612.695 707.071 607.438 700.587 607.438H637.964C631.48 607.438 626.223 612.695 626.223 619.179V694.326C626.223 700.81 631.48 706.068 637.964 706.068ZM649.706 682.584V668.494H688.845V682.584H649.706ZM688.845 630.921V645.011H649.706V630.921H688.845Z" fill="#EB6024"/>
<path d="M525.246 706.068H587.868C594.352 706.068 599.61 700.81 599.61 694.326V619.179C599.61 612.695 594.352 607.438 587.868 607.438H525.246C518.761 607.438 513.504 612.695 513.504 619.179V694.326C513.504 700.81 518.761 706.068 525.246 706.068ZM536.987 682.584V668.494H576.126V682.584H536.987ZM576.126 630.921V645.011H536.987V630.921H576.126Z" fill="#EB6024"/>
<path d="M637.964 568.299H700.587C707.071 568.299 712.328 563.042 712.328 556.557V472.8C712.328 464.168 705.305 457.145 696.673 457.145H641.878C633.246 457.145 626.223 464.168 626.223 472.8V556.557C626.223 563.042 631.48 568.299 637.964 568.299ZM649.706 544.816V530.726H688.845V544.816H649.706ZM688.845 480.628V507.242H649.706V480.628H688.845Z" fill="#EB6024"/>
<path d="M525.246 568.299H587.868C594.352 568.299 599.61 563.042 599.61 556.557V472.8C599.61 464.168 592.586 457.145 583.954 457.145H529.159C520.527 457.145 513.504 464.168 513.504 472.8V556.557C513.504 563.042 518.761 568.299 525.246 568.299ZM536.987 544.816V530.726H576.126V544.816H536.987ZM576.126 480.628V507.242H536.987V480.628H576.126Z" fill="#EB6024"/>
</g>
<defs>
<clipPath id="clip0_1433_60">
<rect width="800" height="800" fill="white"/>
</clipPath>
</defs>
</svg>
