<svg width="48" height="48" viewBox="0 0 48 48" fill="none" xmlns="http://www.w3.org/2000/svg">
<path d="M1.90039 39.9992V35.2992C1.90039 34.1326 2.20039 33.0742 2.80039 32.1242C3.40039 31.1742 4.23372 30.4659 5.30039 29.9992C7.73372 28.9326 9.92539 28.1659 11.8754 27.6992C13.8254 27.2326 15.8337 26.9992 17.9004 26.9992C19.9671 26.9992 21.9671 27.2326 23.9004 27.6992C25.8337 28.1659 28.0171 28.9326 30.4504 29.9992C31.5171 30.4659 32.3587 31.1742 32.9754 32.1242C33.5921 33.0742 33.9004 34.1326 33.9004 35.2992V39.9992H1.90039ZM36.9004 39.9992V35.2992C36.9004 33.1992 36.3671 31.4742 35.3004 30.1242C34.2337 28.7742 32.8337 27.6826 31.1004 26.8492C33.4004 27.1159 35.5671 27.5076 37.6004 28.0242C39.6337 28.5409 41.2837 29.1326 42.5504 29.7992C43.6504 30.4326 44.5171 31.2159 45.1504 32.1492C45.7837 33.0826 46.1004 34.1326 46.1004 35.2992V39.9992H36.9004ZM17.9004 23.9492C15.7004 23.9492 13.9004 23.2492 12.5004 21.8492C11.1004 20.4492 10.4004 18.6492 10.4004 16.4492C10.4004 14.2492 11.1004 12.4492 12.5004 11.0492C13.9004 9.64922 15.7004 8.94922 17.9004 8.94922C20.1004 8.94922 21.9004 9.64922 23.3004 11.0492C24.7004 12.4492 25.4004 14.2492 25.4004 16.4492C25.4004 18.6492 24.7004 20.4492 23.3004 21.8492C21.9004 23.2492 20.1004 23.9492 17.9004 23.9492ZM35.9004 16.4492C35.9004 18.6492 35.2004 20.4492 33.8004 21.8492C32.4004 23.2492 30.6004 23.9492 28.4004 23.9492C28.0337 23.9492 27.6254 23.9242 27.1754 23.8742C26.7254 23.8242 26.3171 23.7326 25.9504 23.5992C26.7504 22.7659 27.3587 21.7409 27.7754 20.5242C28.1921 19.3076 28.4004 17.9492 28.4004 16.4492C28.4004 14.9492 28.1921 13.6242 27.7754 12.4742C27.3587 11.3242 26.7504 10.2659 25.9504 9.29922C26.3171 9.19922 26.7254 9.11589 27.1754 9.04922C27.6254 8.98255 28.0337 8.94922 28.4004 8.94922C30.6004 8.94922 32.4004 9.64922 33.8004 11.0492C35.2004 12.4492 35.9004 14.2492 35.9004 16.4492ZM4.90039 36.9992H30.9004V35.2992C30.9004 34.7659 30.7421 34.2492 30.4254 33.7492C30.1087 33.2492 29.7171 32.8992 29.2504 32.6992C26.8504 31.6326 24.8337 30.9159 23.2004 30.5492C21.5671 30.1826 19.8004 29.9992 17.9004 29.9992C16.0004 29.9992 14.2254 30.1826 12.5754 30.5492C10.9254 30.9159 8.90039 31.6326 6.50039 32.6992C6.03372 32.8992 5.65039 33.2492 5.35039 33.7492C5.05039 34.2492 4.90039 34.7659 4.90039 35.2992V36.9992ZM17.9004 20.9492C19.2004 20.9492 20.2754 20.5242 21.1254 19.6742C21.9754 18.8242 22.4004 17.7492 22.4004 16.4492C22.4004 15.1492 21.9754 14.0742 21.1254 13.2242C20.2754 12.3742 19.2004 11.9492 17.9004 11.9492C16.6004 11.9492 15.5254 12.3742 14.6754 13.2242C13.8254 14.0742 13.4004 15.1492 13.4004 16.4492C13.4004 17.7492 13.8254 18.8242 14.6754 19.6742C15.5254 20.5242 16.6004 20.9492 17.9004 20.9492Z" fill="#EB6024"/>
</svg>
