<svg width="115" height="38" viewBox="0 0 115 38" fill="none" xmlns="http://www.w3.org/2000/svg">
<path d="M2 26C2 19.3726 7.37258 14 14 14V14V26C14 32.6274 8.62742 38 2 38V38V26Z" fill="#FECA7E"/>
<circle cx="15" cy="17" r="15" fill="#FF553D"/>
<path d="M38.4489 27.9091V9.90909H42.0284V12.108H42.1903C42.3494 11.7557 42.5795 11.3977 42.8807 11.0341C43.1875 10.6648 43.5852 10.358 44.0739 10.1136C44.5682 9.86364 45.1818 9.73864 45.9148 9.73864C46.8693 9.73864 47.75 9.98864 48.5568 10.4886C49.3636 10.983 50.0085 11.7301 50.4915 12.7301C50.9744 13.7244 51.2159 14.9716 51.2159 16.4716C51.2159 17.9318 50.9801 19.1648 50.5085 20.1705C50.0426 21.1705 49.4063 21.929 48.5994 22.446C47.7983 22.9574 46.9006 23.2131 45.9062 23.2131C45.2017 23.2131 44.6023 23.0966 44.108 22.8636C43.6193 22.6307 43.2188 22.3381 42.9062 21.9858C42.5938 21.6278 42.3551 21.267 42.1903 20.9034H42.0795V27.9091H38.4489ZM42.0028 16.4545C42.0028 17.233 42.1108 17.9119 42.3267 18.4915C42.5426 19.071 42.8551 19.5227 43.2642 19.8466C43.6733 20.1648 44.1705 20.3239 44.7557 20.3239C45.3466 20.3239 45.8466 20.1619 46.2557 19.8381C46.6648 19.5085 46.9744 19.054 47.1847 18.4744C47.4006 17.8892 47.5085 17.2159 47.5085 16.4545C47.5085 15.6989 47.4034 15.0341 47.1932 14.4602C46.983 13.8864 46.6733 13.4375 46.2642 13.1136C45.8551 12.7898 45.3523 12.6278 44.7557 12.6278C44.1648 12.6278 43.6648 12.7841 43.2557 13.0966C42.8523 13.4091 42.5426 13.8523 42.3267 14.4261C42.1108 15 42.0028 15.6761 42.0028 16.4545ZM57.3693 23.2472C56.5341 23.2472 55.7898 23.1023 55.1364 22.8125C54.483 22.517 53.9659 22.0824 53.5852 21.5085C53.2102 20.929 53.0227 20.2074 53.0227 19.3438C53.0227 18.6165 53.1563 18.0057 53.4233 17.5114C53.6903 17.017 54.054 16.6193 54.5142 16.3182C54.9744 16.017 55.4972 15.7898 56.0824 15.6364C56.6733 15.483 57.2926 15.375 57.9403 15.3125C58.7017 15.233 59.3153 15.1591 59.7812 15.0909C60.2472 15.017 60.5852 14.9091 60.7955 14.767C61.0057 14.625 61.1108 14.4148 61.1108 14.1364V14.0852C61.1108 13.5455 60.9403 13.1278 60.5994 12.8324C60.2642 12.5369 59.7869 12.3892 59.1676 12.3892C58.5142 12.3892 57.9943 12.5341 57.608 12.8239C57.2216 13.108 56.9659 13.4659 56.8409 13.8977L53.483 13.625C53.6534 12.8295 53.9886 12.142 54.4886 11.5625C54.9886 10.9773 55.6335 10.5284 56.4233 10.2159C57.2188 9.89773 58.1392 9.73864 59.1847 9.73864C59.9119 9.73864 60.608 9.82386 61.2727 9.99432C61.9432 10.1648 62.5369 10.429 63.054 10.7869C63.5767 11.1449 63.9886 11.6051 64.2898 12.1676C64.5909 12.7244 64.7415 13.392 64.7415 14.1705V23H61.2983V21.1847H61.196C60.9858 21.5938 60.7045 21.9545 60.3523 22.267C60 22.5739 59.5767 22.8153 59.0824 22.9915C58.5881 23.1619 58.017 23.2472 57.3693 23.2472ZM58.4091 20.7415C58.9432 20.7415 59.4148 20.6364 59.8239 20.4261C60.233 20.2102 60.554 19.9205 60.7869 19.5568C61.0199 19.1932 61.1364 18.7812 61.1364 18.321V16.9318C61.0227 17.0057 60.8665 17.0739 60.6676 17.1364C60.4744 17.1932 60.2557 17.2472 60.0114 17.2983C59.767 17.3437 59.5227 17.3864 59.2784 17.4261C59.0341 17.4602 58.8125 17.4915 58.6136 17.5199C58.1875 17.5824 57.8153 17.6818 57.4972 17.8182C57.179 17.9545 56.9318 18.1392 56.7557 18.3722C56.5795 18.5994 56.4915 18.8835 56.4915 19.2244C56.4915 19.7188 56.6705 20.0966 57.0284 20.358C57.392 20.6136 57.8523 20.7415 58.4091 20.7415ZM69.331 27.9091C68.8707 27.9091 68.4389 27.8722 68.0355 27.7983C67.6378 27.7301 67.3082 27.642 67.0469 27.5341L67.8651 24.8239C68.2912 24.9545 68.6747 25.0256 69.0156 25.0369C69.3622 25.0483 69.6605 24.9688 69.9105 24.7983C70.1662 24.6278 70.3736 24.3381 70.5327 23.929L70.7457 23.375L66.0497 9.90909H69.8679L72.5781 19.5227H72.7145L75.4503 9.90909H79.294L74.206 24.4148C73.9616 25.1193 73.6293 25.733 73.2088 26.2557C72.794 26.7841 72.2685 27.1903 71.6321 27.4744C70.9957 27.7642 70.2287 27.9091 69.331 27.9091ZM86.6449 23.2557C85.321 23.2557 84.1761 22.9744 83.2102 22.4119C82.25 21.8437 81.5085 21.054 80.9858 20.0426C80.4631 19.0256 80.2017 17.8466 80.2017 16.5057C80.2017 15.1534 80.4631 13.9716 80.9858 12.9602C81.5085 11.9432 82.25 11.1534 83.2102 10.5909C84.1761 10.0227 85.321 9.73864 86.6449 9.73864C87.9688 9.73864 89.1108 10.0227 90.071 10.5909C91.0369 11.1534 91.7812 11.9432 92.304 12.9602C92.8267 13.9716 93.0881 15.1534 93.0881 16.5057C93.0881 17.8466 92.8267 19.0256 92.304 20.0426C91.7812 21.054 91.0369 21.8437 90.071 22.4119C89.1108 22.9744 87.9688 23.2557 86.6449 23.2557ZM86.6619 20.4432C87.2642 20.4432 87.767 20.2727 88.1705 19.9318C88.5739 19.5852 88.8778 19.1136 89.0824 18.517C89.2926 17.9205 89.3977 17.2415 89.3977 16.4801C89.3977 15.7188 89.2926 15.0398 89.0824 14.4432C88.8778 13.8466 88.5739 13.375 88.1705 13.0284C87.767 12.6818 87.2642 12.5085 86.6619 12.5085C86.054 12.5085 85.5426 12.6818 85.1278 13.0284C84.7188 13.375 84.4091 13.8466 84.1989 14.4432C83.9943 15.0398 83.892 15.7188 83.892 16.4801C83.892 17.2415 83.9943 17.9205 84.1989 18.517C84.4091 19.1136 84.7188 19.5852 85.1278 19.9318C85.5426 20.2727 86.054 20.4432 86.6619 20.4432ZM99.0795 5.54545V23H95.4489V5.54545H99.0795ZM105.721 23.2472C104.886 23.2472 104.141 23.1023 103.488 22.8125C102.835 22.517 102.317 22.0824 101.937 21.5085C101.562 20.929 101.374 20.2074 101.374 19.3438C101.374 18.6165 101.508 18.0057 101.775 17.5114C102.042 17.017 102.406 16.6193 102.866 16.3182C103.326 16.017 103.849 15.7898 104.434 15.6364C105.025 15.483 105.644 15.375 106.292 15.3125C107.053 15.233 107.667 15.1591 108.133 15.0909C108.599 15.017 108.937 14.9091 109.147 14.767C109.357 14.625 109.462 14.4148 109.462 14.1364V14.0852C109.462 13.5455 109.292 13.1278 108.951 12.8324C108.616 12.5369 108.138 12.3892 107.519 12.3892C106.866 12.3892 106.346 12.5341 105.96 12.8239C105.573 13.108 105.317 13.4659 105.192 13.8977L101.835 13.625C102.005 12.8295 102.34 12.142 102.84 11.5625C103.34 10.9773 103.985 10.5284 104.775 10.2159C105.57 9.89773 106.491 9.73864 107.536 9.73864C108.263 9.73864 108.96 9.82386 109.624 9.99432C110.295 10.1648 110.888 10.429 111.406 10.7869C111.928 11.1449 112.34 11.6051 112.641 12.1676C112.942 12.7244 113.093 13.392 113.093 14.1705V23H109.65V21.1847H109.548C109.337 21.5938 109.056 21.9545 108.704 22.267C108.352 22.5739 107.928 22.8153 107.434 22.9915C106.94 23.1619 106.369 23.2472 105.721 23.2472ZM106.761 20.7415C107.295 20.7415 107.766 20.6364 108.175 20.4261C108.585 20.2102 108.906 19.9205 109.138 19.5568C109.371 19.1932 109.488 18.7812 109.488 18.321V16.9318C109.374 17.0057 109.218 17.0739 109.019 17.1364C108.826 17.1932 108.607 17.2472 108.363 17.2983C108.119 17.3437 107.874 17.3864 107.63 17.4261C107.386 17.4602 107.164 17.4915 106.965 17.5199C106.539 17.5824 106.167 17.6818 105.849 17.8182C105.531 17.9545 105.283 18.1392 105.107 18.3722C104.931 18.5994 104.843 18.8835 104.843 19.2244C104.843 19.7188 105.022 20.0966 105.38 20.358C105.744 20.6136 106.204 20.7415 106.761 20.7415Z" fill="black"/>
</svg>
