<svg width="32" height="32" viewBox="0 0 24 24" fill="none"
    xmlns="http://www.w3.org/2000/svg">
    <path d="M22.6667 10.6667C22.313 10.6667 21.9739 10.8071 21.7239 11.0572C21.4738 11.3072 21.3333 11.6464 21.3333 12V20C21.3333 20.3536 21.1929 20.6928 20.9428 20.9428C20.6928 21.1929 20.3536 21.3333 20 21.3333H4C3.64638 21.3333 3.30724 21.1929 3.05719 20.9428C2.80714 20.6928 2.66667 20.3536 2.66667 20V4C2.66667 3.64638 2.80714 3.30724 3.05719 3.05719C3.30724 2.80714 3.64638 2.66667 4 2.66667H12C12.3536 2.66667 12.6928 2.52619 12.9428 2.27614C13.1929 2.02609 13.3333 1.68696 13.3333 1.33333C13.3333 0.979711 13.1929 0.640573 12.9428 0.390524C12.6928 0.140476 12.3536 0 12 0H4C2.93913 0 1.92172 0.421428 1.17157 1.17157C0.421428 1.92172 0 2.93913 0 4V20C0 21.0609 0.421428 22.0783 1.17157 22.8284C1.92172 23.5786 2.93913 24 4 24H20C21.0609 24 22.0783 23.5786 22.8284 22.8284C23.5786 22.0783 24 21.0609 24 20V12C24 11.6464 23.8595 11.3072 23.6095 11.0572C23.3594 10.8071 23.0203 10.6667 22.6667 10.6667Z" fill="#CCCCCC"/>
    <path d="M17.3333 2.66667H19.44L11.0533 11.04C10.9284 11.164 10.8292 11.3114 10.7615 11.4739C10.6938 11.6364 10.6589 11.8107 10.6589 11.9867C10.6589 12.1627 10.6938 12.337 10.7615 12.4994C10.8292 12.6619 10.9284 12.8094 11.0533 12.9333C11.1773 13.0583 11.3248 13.1575 11.4872 13.2252C11.6497 13.2929 11.824 13.3277 12 13.3277C12.176 13.3277 12.3503 13.2929 12.5128 13.2252C12.6752 13.1575 12.8227 13.0583 12.9467 12.9333L21.3333 4.56V6.66667C21.3333 7.02029 21.4738 7.35943 21.7239 7.60948C21.9739 7.85952 22.313 8 22.6667 8C23.0203 8 23.3594 7.85952 23.6095 7.60948C23.8595 7.35943 24 7.02029 24 6.66667V1.33333C24 0.979711 23.8595 0.640573 23.6095 0.390524C23.3594 0.140476 23.0203 0 22.6667 0H17.3333C16.9797 0 16.6406 0.140476 16.3905 0.390524C16.1405 0.640573 16 0.979711 16 1.33333C16 1.68696 16.1405 2.02609 16.3905 2.27614C16.6406 2.52619 16.9797 2.66667 17.3333 2.66667V2.66667Z" fill="#CCCCCC"/>
</svg>
